<?xml version="1.0" encoding="UTF-8"?>
<svg id="Layer_2" data-name="Layer 2" xmlns="http://www.w3.org/2000/svg" viewBox="0 0 512 512">
  <defs>
    <style>
      .cls-1 {
        fill: #fff;
      }

      .cls-2 {
        fill: #f2f2f2;
        isolation: isolate;
      }

      .cls-3 {
        fill: #c03355;
      }
    </style>
  </defs>
  <g id="Layer_1-2" data-name="Layer 1">
    <rect class="cls-3" width="512" height="512"/>
    <g>
      <path class="cls-2" d="M378.56,178.08l-44.77-44.77c-7.01-7.01-18.42-7.01-25.42,0l-44.63,44.63c-.83.83-1.29,1.95-1.29,3.12s.47,2.29,1.29,3.12l63.96,63.96c.83.83,1.95,1.29,3.12,1.29s2.29-.47,3.12-1.29l44.63-44.63c3.4-3.4,5.27-7.91,5.27-12.71s-1.87-9.32-5.27-12.71h0ZM309.96,169.15l-15.02,15.02c-.86.86-1.99,1.29-3.12,1.29s-2.26-.43-3.12-1.29c-1.72-1.72-1.72-4.51,0-6.24l15.02-15.02c1.72-1.72,4.51-1.72,6.24,0,1.72,1.72,1.72,4.51,0,6.24ZM324.2,154.9l-3.42,3.42c-.86.86-1.99,1.29-3.12,1.29s-2.26-.43-3.12-1.29c-1.72-1.72-1.72-4.51,0-6.24l3.42-3.42c1.72-1.72,4.51-1.72,6.24,0,1.72,1.72,1.72,4.51,0,6.24Z"/>
      <path class="cls-2" d="M341.67,327.75c-13.09-1.94-26.62-3.95-33.45-8.16-2.12-1.31-2.49-2.14-2.52-2.14.63-3.36,17.06-11.3,45.17-16.89,2.39-.48,3.94-2.8,3.46-5.19-.47-2.39-2.77-3.93-5.19-3.47-18.52,3.68-49.92,11.69-52.13,23.99-.53,2.94.19,7.27,6.58,11.21,8.37,5.16,22.82,7.3,36.79,9.37,14.62,2.17,34.63,5.14,34.63,11.55,0,16.69-83.79,27.03-161.41,27.03-2.44,0-4.41,1.97-4.41,4.41s1.97,4.41,4.41,4.41c.42,0,42.14-.05,83.33-3.95,77.9-7.39,86.91-21.74,86.91-31.9,0-14.01-20.48-17.05-42.16-20.27h0Z"/>
      <path class="cls-1" d="M221.43,360.64l100.46-100.46c1.72-1.72,1.72-4.51,0-6.24-1.72-1.72-4.51-1.72-6.24,0l-9.75,9.75-57.72-57.72,9.75-9.75c1.72-1.72,1.72-4.51,0-6.24-1.72-1.72-4.51-1.72-6.24,0l-31.98,31.98c-1.72,1.72-1.72,4.51,0,6.24.86.86,1.99,1.29,3.12,1.29s2.26-.43,3.12-1.29l15.99-15.99,14.87,14.87-77.72,77.72-14.87-14.87,17.61-17.61c1.72-1.72,1.72-4.51,0-6.24-1.72-1.72-4.51-1.72-6.24,0l-24.38,24.38c-2.38,2.38-4.04,5.38-4.81,8.67l-18.31,79.35c-.34,1.48.11,3.03,1.18,4.11.84.84,1.96,1.29,3.12,1.29.33,0,.66-.04.99-.11l79.36-18.31c3.29-.76,6.28-2.42,8.67-4.8ZM221.95,347.64l-14.87-14.87,77.72-77.72,14.87,14.87-77.72,77.72ZM263.05,233.31l15.52,15.52-77.72,77.72-15.52-15.52,77.72-77.72ZM143.31,351.83l16.73,16.73-21.75,5.02s5.02-21.75,5.02-21.75ZM170.18,366.22l-24.52-24.52,9.37-40.59c.39-1.68,1.23-3.2,2.45-4.42l.53-.53,57.72,57.72-.53.53c-1.21,1.21-2.74,2.06-4.42,2.45,0,0-40.6,9.37-40.6,9.37Z"/>
      <path class="cls-1" d="M212.72,235.2c-1.72-1.72-4.51-1.72-6.24,0l-18.61,18.61c-1.72,1.72-1.72,4.51,0,6.24.86.86,1.99,1.29,3.12,1.29s2.26-.43,3.12-1.29l18.61-18.61c1.72-1.72,1.72-4.51,0-6.24Z"/>
    </g>
  </g>
</svg>