<?xml version="1.0" encoding="UTF-8"?>
<svg id="Layer_2" data-name="Layer 2" xmlns="http://www.w3.org/2000/svg" viewBox="0 0 801.35 801.25">
  <defs>
    <style>
      .cls-1 {
        fill: #fff;
      }

      .cls-2 {
        fill: #f2f2f2;
        isolation: isolate;
      }
    </style>
  </defs>
  <g id="Layer_2-2" data-name="Layer 2">
    <g>
      <path class="cls-2" d="M784.82,156.69L644.6,16.47c-21.96-21.96-57.69-21.96-79.62,0l-139.78,139.78c-2.6,2.6-4.04,6.11-4.04,9.77s1.47,7.17,4.04,9.77l200.32,200.32c2.6,2.6,6.11,4.04,9.77,4.04s7.17-1.47,9.77-4.04l139.78-139.78c10.65-10.65,16.51-24.77,16.51-39.81s-5.86-29.19-16.51-39.81h0l-.03-.03ZM569.96,128.72l-47.04,47.04c-2.69,2.69-6.23,4.04-9.77,4.04s-7.08-1.35-9.77-4.04c-5.39-5.39-5.39-14.13,0-19.54l47.04-47.04c5.39-5.39,14.13-5.39,19.54,0,5.39,5.39,5.39,14.13,0,19.54ZM614.56,84.09l-10.71,10.71c-2.69,2.69-6.23,4.04-9.77,4.04s-7.08-1.35-9.77-4.04c-5.39-5.39-5.39-14.13,0-19.54l10.71-10.71c5.39-5.39,14.13-5.39,19.54,0,5.39,5.39,5.39,14.13,0,19.54Z"/>
      <path class="cls-2" d="M669.28,625.45c-41-6.08-83.37-12.37-104.76-25.56-6.64-4.1-7.8-6.7-7.89-6.7,1.97-10.52,53.43-35.39,141.47-52.9,7.49-1.5,12.34-8.77,10.84-16.25-1.47-7.49-8.68-12.31-16.25-10.87-58,11.53-156.35,36.61-163.27,75.14-1.66,9.21.6,22.77,20.61,35.11,26.21,16.16,71.47,22.86,115.23,29.35,45.79,6.8,108.46,16.1,108.46,36.17,0,52.27-262.43,84.66-505.53,84.66-7.64,0-13.81,6.17-13.81,13.81s6.17,13.81,13.81,13.81c1.32,0,131.98-.16,260.99-12.37,243.98-23.15,272.2-68.09,272.2-99.91,0-43.88-64.14-53.4-132.04-63.49h-.03Z"/>
      <path class="cls-1" d="M292.69,728.46l314.64-314.64c5.39-5.39,5.39-14.13,0-19.54-5.39-5.39-14.13-5.39-19.54,0l-30.54,30.54-180.78-180.78,30.54-30.54c5.39-5.39,5.39-14.13,0-19.54-5.39-5.39-14.13-5.39-19.54,0l-100.16,100.16c-5.39,5.39-5.39,14.13,0,19.54,2.69,2.69,6.23,4.04,9.77,4.04s7.08-1.35,9.77-4.04l50.08-50.08,46.57,46.57-243.42,243.42-46.57-46.57,55.15-55.15c5.39-5.39,5.39-14.13,0-19.54-5.39-5.39-14.13-5.39-19.54,0l-76.36,76.36c-7.45,7.45-12.65,16.85-15.06,27.15L.35,784.33c-1.06,4.64.34,9.49,3.7,12.87,2.63,2.63,6.14,4.04,9.77,4.04,1.03,0,2.07-.13,3.1-.34l248.55-57.35c10.3-2.38,19.67-7.58,27.15-15.03l.06-.06ZM294.32,687.74l-46.57-46.57,243.42-243.42,46.57,46.57-243.42,243.42h0ZM423.04,329.66l48.61,48.61-243.42,243.42-48.61-48.61,243.42-243.42ZM48.02,700.87l52.4,52.4-68.12,15.72,15.72-68.12ZM132.17,745.94l-76.8-76.8,29.35-127.13c1.22-5.26,3.85-10.02,7.67-13.84l1.66-1.66,180.78,180.78-1.66,1.66c-3.79,3.79-8.58,6.45-13.84,7.67l-127.16,29.35v-.03Z"/>
      <path class="cls-1" d="M265.41,335.58c-5.39-5.39-14.13-5.39-19.54,0l-58.29,58.29c-5.39,5.39-5.39,14.13,0,19.54,2.69,2.69,6.23,4.04,9.77,4.04s7.08-1.35,9.77-4.04l58.29-58.29c5.39-5.39,5.39-14.13,0-19.54h0Z"/>
    </g>
  </g>
</svg>